<svg width="19" height="20" viewBox="0 0 19 20" fill="none" xmlns="http://www.w3.org/2000/svg">
<path d="M15.4375 1.25H4.75C4.43506 1.25 4.13301 1.3817 3.91031 1.61612C3.68761 1.85054 3.5625 2.16848 3.5625 2.5V5H2.375V6.25H3.5625V9.375H2.375V10.625H3.5625V13.75H2.375V15H3.5625V17.5C3.5625 17.8315 3.68761 18.1495 3.91031 18.3839C4.13301 18.6183 4.43506 18.75 4.75 18.75H15.4375C15.7524 18.75 16.0545 18.6183 16.2772 18.3839C16.4999 18.1495 16.625 17.8315 16.625 17.5V2.5C16.625 2.16848 16.4999 1.85054 16.2772 1.61612C16.0545 1.3817 15.7524 1.25 15.4375 1.25ZM15.4375 17.5H4.75V15H5.9375V13.75H4.75V10.625H5.9375V9.375H4.75V6.25H5.9375V5H4.75V2.5H15.4375V17.5Z" fill="black"/>
<path d="M13.0625 5H8.3125V6.25H13.0625V5Z" fill="black"/>
<path d="M13.0625 9.375H8.3125V10.625H13.0625V9.375Z" fill="black"/>
<path d="M13.0625 13.75H8.3125V15H13.0625V13.75Z" fill="black"/>
</svg>
