<svg width="20" height="20" viewBox="0 0 20 20" fill="none" xmlns="http://www.w3.org/2000/svg">
<path fill-rule="evenodd" clip-rule="evenodd" d="M13.6687 4.9L12.5813 4.275L10 8.75C9.30964 8.75 8.75 9.30964 8.75 10C8.75 10.6904 9.30964 11.25 10 11.25C10.6904 11.25 11.25 10.6904 11.25 10C11.2496 9.78046 11.1914 9.5649 11.0813 9.375L13.6687 4.9ZM10 1.25C5.16751 1.25 1.25 5.16751 1.25 10C1.25 14.8325 5.16751 18.75 10 18.75C14.8325 18.75 18.75 14.8325 18.75 10C18.75 7.67936 17.8281 5.45376 16.1872 3.81282C14.5462 2.17187 12.3206 1.25 10 1.25ZM10 2.5C13.0898 2.50356 15.8612 4.40161 16.9812 7.28125C16.2379 6.90953 15.4669 6.59609 14.675 6.34375L14.05 7.45C15.2374 7.79833 16.3741 8.30051 17.4312 8.94375C17.5396 9.64375 17.5396 10.3562 17.4312 11.0562C15.1899 12.4123 12.6196 13.1279 10 13.125C7.3846 13.1256 4.81895 12.4101 2.58125 11.0562C2.47292 10.3562 2.47292 9.64375 2.58125 8.94375C4.63496 7.69188 6.97212 6.98019 9.375 6.875V5.625C7.16513 5.71074 4.99862 6.26461 3.01875 7.25C4.14882 4.38265 6.91799 2.49852 10 2.5ZM3.01875 12.7188C4.1388 15.5984 6.91021 17.4964 10 17.5C13.0898 17.4964 15.8612 15.5984 16.9812 12.7188C14.8151 13.8075 12.4244 14.3747 10 14.375C7.57562 14.3747 5.1849 13.8075 3.01875 12.7188Z" fill="black"/>
</svg>
