<svg width="20" height="20" viewBox="0 0 20 20" fill="none" xmlns="http://www.w3.org/2000/svg">
<path fill-rule="evenodd" clip-rule="evenodd" d="M16.875 5.625H15V3.75C15 3.05964 14.4404 2.5 13.75 2.5H6.25C5.55964 2.5 5 3.05964 5 3.75V5.625H3.125C2.08947 5.625 1.25 6.46447 1.25 7.5V16.25C1.25 16.9404 1.80964 17.5 2.5 17.5H17.5C18.1904 17.5 18.75 16.9404 18.75 16.25V7.5C18.75 6.46447 17.9105 5.625 16.875 5.625ZM6.25 3.75H13.75V5.625H6.25V3.75ZM17.5 16.25H2.5V10.625H7.5V13.75H12.5V10.625H17.5V16.25ZM8.75 10.625H11.25V12.5H8.75V10.625ZM2.5 9.375V7.5C2.5 7.15482 2.77982 6.875 3.125 6.875H16.875C17.2202 6.875 17.5 7.15482 17.5 7.5V9.375H2.5Z" fill="black"/>
</svg>
