<svg xmlns="http://www.w3.org/2000/svg" width="64" height="64" viewBox="0 0 64 64">
    <g fill="#000" fill-rule="nonzero">
        <path d="M48 4.29a31.802 31.802 0 0 0-7.739-3.2A32.264 32.264 0 0 0 31.977 0c-2.86 0-5.65.386-8.306 1.09a31.802 31.802 0 0 0-7.74 3.2 32.25 32.25 0 0 0-6.626 5.106l.023.022A31.66 31.66 0 0 0 4.289 16a31.64 31.64 0 0 0-3.2 7.716l5.266 1.407a26.087 26.087 0 0 1 2.655-6.4 26.207 26.207 0 0 1 4.221-5.492l-.022-.022a27.378 27.378 0 0 1 5.469-4.2 26.62 26.62 0 0 1 6.423-2.654 26.455 26.455 0 0 1 6.876-.908c2.383 0 4.698.318 6.877.908a26.62 26.62 0 0 1 6.423 2.655c2.02 1.157 3.858 2.587 5.514 4.221l3.859-3.858C52.652 7.421 50.428 5.696 48 4.289zM5.447 32H0c0 2.86.386 5.651 1.09 8.284l5.265-1.407A26.455 26.455 0 0 1 5.447 32zM62.91 23.716A31.64 31.64 0 0 0 59.71 16l-4.72 2.723a26.458 26.458 0 0 1 2.655 6.4c.295 1.135.522 2.293.681 3.473h5.492a31.887 31.887 0 0 0-.907-4.88zM57.645 38.877a26.087 26.087 0 0 1-2.655 6.4 26.207 26.207 0 0 1-4.221 5.492 26.207 26.207 0 0 1-5.492 4.221 26.458 26.458 0 0 1-6.4 2.655c-2.202.59-4.494.908-6.877.908s-4.675-.318-6.877-.908a26.087 26.087 0 0 1-6.4-2.655 26.207 26.207 0 0 1-5.492-4.221 26.207 26.207 0 0 1-4.221-5.492L4.29 48a32.146 32.146 0 0 0 5.083 6.627A32.146 32.146 0 0 0 16 59.711a31.64 31.64 0 0 0 7.716 3.2A32.133 32.133 0 0 0 32 64c2.86 0 5.651-.386 8.284-1.09A31.64 31.64 0 0 0 48 59.71a32.146 32.146 0 0 0 6.627-5.083A32.146 32.146 0 0 0 59.711 48a31.64 31.64 0 0 0 3.2-7.716c.43-1.589.726-3.223.907-4.88h-5.492a22.365 22.365 0 0 1-.68 3.473z"/>
        <path d="M32 46.525c-8.011 0-14.525-6.514-14.525-14.525S23.99 17.475 32 17.475c6.854 0 12.596 4.743 14.116 11.12h5.56C50.067 19.178 41.873 12.029 32 12.029c-11.03 0-19.972 8.942-19.972 19.972 0 11.03 8.942 19.972 19.972 19.972 9.872 0 18.065-7.15 19.677-16.568h-5.56c-1.521 6.378-7.263 11.12-14.117 11.12z"/>
    </g>
</svg>
