<svg width="21" height="21" viewBox="0 0 27 28" fill="none" xmlns="http://www.w3.org/2000/svg">
<path d="M25 21.4011C25 21.6902 24.7986 22.0423 24.5533 22.1851L18.3324 25.8282V11.7758L6.33361 4.74979L12.5546 1.10819C12.7998 0.963938 13.2032 0.963938 13.4489 1.10819L25 7.87233L25 21.4011ZM15.6633 13.3365L7.44629 8.52256C7.20058 8.3793 6.79918 8.3793 6.55296 8.52256L1 11.7747L9.66619 16.8495L9.66768 27L15.2167 23.7483C15.4629 23.6041 15.6633 23.2509 15.6633 22.9634L15.6633 13.3365ZM1 21.9247L6.99564 25.4372V18.4103L1 21.9247Z" fill="#5CE500"/>
<circle cx="21" cy="21" r="6" stroke="white" stroke-width="1" fill="red" />
</svg>