<?xml version="1.0" encoding="utf-8"?>
<!-- Generator: Adobe Illustrator 27.8.0, SVG Export Plug-In . SVG Version: 6.00 Build 0)  -->
<svg version="1.1" id="Logos" xmlns="http://www.w3.org/2000/svg" xmlns:xlink="http://www.w3.org/1999/xlink" x="0px" y="0px"
	 viewBox="0 0 25 25" style="enable-background:new 0 0 25 25;" xml:space="preserve">
<style type="text/css">
	.st0{fill:#5CE500;}
</style>
<path class="st0" d="M24.1,7.1L24.1,7.1l0,12.4c0,0.3-0.2,0.6-0.4,0.7l-0.4,0.2l-3.1,1.8l-2.1,1.2l-0.4,0.2V10.4L6,3.7l5.5-3.2h0
	l0.5-0.3c0.2-0.1,0.6-0.1,0.9,0l7.7,4.4l3.5,2V7.1z M15.1,11.9l-2.4-1.4L7.1,7.3c-0.2-0.1-0.6-0.1-0.9,0l-4.9,2.9h0l-0.4,0.2
	l8.4,4.8l0,9.7l4.9-2.9l0.4-0.3c0.2-0.1,0.4-0.5,0.4-0.7l0-8.7L15.1,11.9L15.1,11.9z M0.9,20.1l5.8,3.4v-6.7
	C6.7,16.7,0.9,20.1,0.9,20.1z"/>
</svg>
